<svg xmlns="http://www.w3.org/2000/svg" viewBox="0 0 24 24" width="1em" height="1em">
  <g fill="currentColor">
    <path
      d="m20.409 6.463-7.818-4.514L12 1.608l-.591.341-7.818 4.514L3 6.804v10.392l.591.341 7.818 4.514.591.341.591-.341 7.818-4.514.591-.341V6.804l-.591-.341Zm-.591 10.051L12 21.027l-7.818-4.513V7.486L12 2.972l7.818 4.514v9.028Z" />
    <path
      d="m13.814 18.579 1.182-.683.021-.012 1.182-.682.021-.012 1.182-.682.021-.013 1.182-.682V8.187l-1.182-.683v7.627l-.021.012-1.182.682-.021.012V6.798l-1.182-.682v10.403l-.021.013-1.182.682-.02.012V5.409l-1.182-.682v14.546l1.182-.682.02-.012ZM10.186 5.421l-1.182.682-.021.013-1.182.682-.021.012-1.182.683-.021.012-1.182.682v7.627l1.182.682.021.012 1.182.683.021.012 1.182.683.021.012 1.182.682.02.012 1.182.683V4.727l-1.182.682-.02.012Zm0 11.793-1.182-.683-.021-.012-1.182-.682-.021-.012-1.182-.683V8.857l1.182-.682.021-.013 1.182-.682.021-.012 1.182-.683v10.429Z" />
  </g>
</svg>
