<svg xmlns="http://www.w3.org/2000/svg" viewBox="0 0 24 24" width="128" height="128">
  <path d="M0 0h24v24H0z" fill="#0e0e0e" />
  <g fill="#f0f0f0">
    <path
      d="m19.475 7.078-6.95-4.012L12 2.762l-.525.304-6.95 4.012L4 7.381v9.238l.525.303 6.95 4.012.525.304.525-.304 6.95-4.012.525-.303V7.381l-.525-.303Zm-.526 8.934L12 20.024l-6.949-4.012V7.988L12 3.975l6.949 4.012v8.025Z" />
    <path
      d="m13.613 17.848 1.05-.607.019-.01 1.051-.607.018-.011 1.051-.606.018-.011 1.051-.607V8.61l-1.051-.606v6.779l-.018.011-1.051.606-.018.011V7.376l-1.051-.607v9.248l-.019.011-1.05.606-.019.011V6.141l-1.05-.606v12.93l1.05-.607.019-.01ZM10.387 6.152l-1.05.607-.019.01-1.051.607-.018.011-1.051.607-.018.01-1.051.607v6.779l1.051.607.018.011 1.051.606.018.011 1.051.607.019.01 1.05.607.019.011 1.05.606V5.535l-1.05.606-.019.011Zm0 10.482-1.05-.606-.019-.011-1.051-.607-.018-.01-1.051-.607V9.206L8.249 8.6l.018-.011 1.051-.607.019-.011 1.05-.606v9.269Z" />
  </g>
</svg>
