<svg xmlns="http://www.w3.org/2000/svg" viewBox="0 0 24 24" width="128" height="128">
  <path d="M0 0h24v24H0z" fill="#0e0e0e" />
  <path
    d="M10.894 17.858 9.781 6.142h2.212l.38 5.36.22 4.423h.396l-.03-4.423 1.026-5.287h2.812l1.025 5.287-.029 4.423h.395l.22-4.423.38-5.36H21l-1.113 11.716h-3.588l-.542-3.266-.176-6.517H15.2l-.176 6.517-.541 3.266h-3.589ZM3 17.858V6.142h2.973c1.099 0 1.893.233 2.384.699.49.466.746 1.234.765 2.303.015.679.024 1.323.029 1.933.005.611.005 1.221 0 1.831-.005.61-.014 1.255-.029 1.933-.019 1.074-.275 1.846-.765 2.314-.491.469-1.285.703-2.384.703H3Zm2.197-1.933h.776c.308 0 .542-.071.703-.212.161-.142.244-.344.249-.608a102.554 102.554 0 0 0 .044-3.112 115.419 115.419 0 0 0-.044-3.113c-.005-.258-.088-.457-.249-.596-.161-.14-.395-.209-.703-.209h-.776v7.85Z"
    fill="#f0f0f0" />
</svg>
