<?xml version="1.0" standalone="no"?>
<!DOCTYPE svg PUBLIC "-//W3C//DTD SVG 20010904//EN"
 "http://www.w3.org/TR/2001/REC-SVG-20010904/DTD/svg10.dtd">
<svg version="1.0" xmlns="http://www.w3.org/2000/svg"
 width="152.000000pt" height="152.000000pt" viewBox="0 0 152.000000 152.000000"
 preserveAspectRatio="xMidYMid meet">
<metadata>
Created by potrace 1.11, written by Peter Selinger 2001-2013
</metadata>
<g transform="translate(0.000000,152.000000) scale(0.100000,-0.100000)"
fill="#000000" stroke="none">
<path d="M740 1470 c0 -5 21 -10 47 -10 55 0 54 5 -4 14 -27 4 -43 2 -43 -4z"/>
<path d="M888 1453 c7 -3 16 -2 19 1 4 3 -2 6 -13 5 -11 0 -14 -3 -6 -6z"/>
<path d="M640 1439 c-30 -5 -68 -6 -84 -3 -21 5 -27 3 -21 -7 6 -9 3 -11 -10
-5 -11 4 -43 -6 -89 -29 -338 -169 -483 -565 -337 -916 33 -80 130 -216 150
-211 7 1 10 -1 7 -6 -7 -12 40 -56 53 -48 5 3 22 -5 38 -20 15 -14 22 -22 14
-18 -10 5 -12 3 -7 -5 5 -7 15 -10 23 -7 8 3 11 1 8 -4 -3 -5 18 -21 47 -36
43 -23 65 -27 116 -25 37 1 61 -2 58 -8 -3 -5 11 -11 32 -13 24 -3 40 0 45 8
7 13 56 12 76 -1 6 -3 18 -1 28 4 28 16 176 32 187 20 10 -9 6 -10 -26 -13 -7
-1 -16 -4 -19 -9 -3 -4 -34 -14 -70 -22 l-64 -15 60 5 c162 12 348 116 461
255 301 373 158 930 -283 1105 -97 38 -102 39 -96 14 5 -19 3 -21 -13 -14 -10
4 -26 9 -34 10 -8 1 -23 6 -33 10 -9 4 -29 5 -42 2 -14 -2 -28 0 -31 4 -6 11
-68 10 -144 -2z m-136 -33 c-16 -12 -11 -12 36 0 62 16 110 18 110 5 0 -5 -27
-12 -60 -16 -32 -4 -64 -12 -69 -19 -8 -9 -1 -11 26 -8 23 3 38 0 44 -9 15
-23 10 -39 -11 -39 -11 0 -20 5 -20 11 0 5 4 8 9 4 5 -3 13 0 16 6 9 13 -54
10 -73 -4 -9 -7 -20 -3 -37 13 -22 20 -28 22 -50 12 -16 -7 -23 -17 -19 -24 5
-7 3 -8 -5 -4 -17 11 15 46 41 46 10 0 18 4 18 8 0 5 10 14 23 20 32 15 44 14
21 -2z m279 7 c-7 -2 -19 -2 -25 0 -7 3 -2 5 12 5 14 0 19 -2 13 -5z m47 -3
c-20 -13 -33 -13 -25 0 3 6 14 10 23 10 15 0 15 -2 2 -10z m160 0 c0 -5 -4
-10 -9 -10 -6 0 -13 5 -16 10 -3 6 1 10 9 10 9 0 16 -4 16 -10z m-253 -6 c-3
-3 -12 -4 -19 -1 -8 3 -5 6 6 6 11 1 17 -2 13 -5z m302 -8 c10 -12 5 -15 -29
-21 -45 -8 -65 -1 -31 10 12 3 21 11 21 16 0 14 26 11 39 -5z m-354 -6 c3 -5
-1 -10 -9 -10 -9 0 -16 5 -16 10 0 6 4 10 9 10 6 0 13 -4 16 -10z m161 -12
c-5 9 3 12 30 12 30 0 34 -2 25 -14 -9 -11 -9 -15 1 -19 7 -2 -3 -4 -22 -3
-32 1 -35 -1 -33 -26 1 -16 -1 -28 -5 -28 -13 0 -34 17 -33 26 2 12 -41 14
-56 2 -6 -5 -24 -8 -40 -5 -27 4 -27 5 -6 12 13 4 21 11 18 15 -3 4 1 8 8 7
30 -1 48 4 43 12 -3 4 6 6 19 3 16 -3 25 0 25 8 0 9 4 9 17 -1 11 -10 14 -10
9 -1z m-399 -45 c-9 -9 -19 -14 -22 -11 -3 3 2 13 11 22 9 9 19 14 22 11 3 -3
-2 -13 -11 -22z m655 -4 c32 -23 32 -38 -1 -17 -28 17 -51 -3 -31 -27 15 -18
23 -65 12 -65 -10 0 -55 31 -64 44 -4 6 2 20 12 31 24 26 25 35 4 35 -8 0 -12
5 -9 10 10 16 45 11 77 -11z m-832 -79 c-34 -34 -63 -61 -65 -58 -3 3 22 33
56 67 33 35 63 61 65 59 2 -3 -23 -33 -56 -68z m428 54 c6 3 13 2 17 -3 8 -13
-24 -29 -46 -24 -11 3 -19 11 -19 18 0 17 23 25 31 12 4 -5 11 -7 17 -3z m217
-4 c3 -5 -1 -10 -9 -10 -9 0 -16 5 -16 10 0 6 4 10 9 10 6 0 13 -4 16 -10z
m50 1 c3 -6 -3 -15 -14 -20 -16 -9 -18 -8 -14 9 6 21 18 26 28 11z m-440 -11
c-3 -5 -1 -10 6 -10 16 0 3 -13 -16 -16 -18 -3 -19 8 -3 24 15 15 21 16 13 2z
m266 -60 c-13 -11 -31 -20 -40 -20 -10 0 -5 7 14 19 39 26 56 26 26 1z m-283
-34 c-14 -6 -36 -20 -49 -31 -25 -23 -17 -2 13 31 13 15 26 20 41 16 21 -5 21
-6 -5 -16z m-151 -9 c-6 -19 -23 -18 -23 2 0 11 5 17 14 14 7 -3 11 -10 9 -16z
m-49 -26 c-17 -21 -31 -31 -43 -31 -5 1 -2 5 8 11 9 5 17 19 17 29 0 13 5 18
15 14 13 -5 13 -9 3 -23z m-74 -22 c-3 -6 0 -15 7 -20 7 -4 10 -11 6 -15 -4
-4 -14 1 -21 12 -15 19 -12 34 5 34 6 0 7 -5 3 -11z m486 1 c0 -5 -9 -14 -20
-20 -19 -10 -20 -10 -8 9 13 22 28 28 28 11z m-297 -15 c-3 -9 -8 -14 -10 -11
-3 3 -2 9 2 15 9 16 15 13 8 -4z m52 -14 c-6 -5 -25 10 -25 20 0 5 6 4 14 -3
8 -7 12 -15 11 -17z m-195 -5 c0 -3 -4 -8 -10 -11 -5 -3 -10 -1 -10 4 0 6 5
11 10 11 6 0 10 -2 10 -4z m69 -31 c7 0 20 -11 28 -25 13 -22 13 -23 0 -7 -15
18 -53 24 -42 7 3 -5 -1 -10 -9 -10 -8 0 -17 -4 -20 -9 -3 -4 6 -6 19 -3 33 6
32 -14 -1 -51 -20 -24 -27 -27 -39 -17 -21 17 -20 54 1 46 8 -3 12 -2 9 4 -3
6 -13 10 -21 10 -8 0 -14 4 -14 9 0 14 62 63 69 54 3 -4 12 -8 20 -8z m-125
-42 c-22 -16 -26 -16 -50 2 -18 14 -17 14 13 15 17 0 35 5 39 12 6 9 9 9 12
-2 3 -7 -3 -19 -14 -27z m410 -10 c-5 -5 -12 -12 -16 -18 -4 -6 -8 -2 -8 8 0
9 7 17 17 17 9 0 12 -3 7 -7z m-244 -13 c0 -5 -2 -10 -4 -10 -3 0 -8 5 -11 10
-3 6 -1 10 4 10 6 0 11 -4 11 -10z m40 -20 c0 -5 -4 -10 -10 -10 -5 0 -10 5
-10 10 0 6 5 10 10 10 6 0 10 -4 10 -10z m210 -20 c0 -5 -4 -10 -10 -10 -5 0
-10 5 -10 10 0 6 5 10 10 10 6 0 10 -4 10 -10z m-504 -37 c-11 -11 -19 6 -11
24 8 17 8 17 12 0 3 -10 2 -21 -1 -24z m234 27 c0 -5 -4 -10 -10 -10 -5 0 -10
5 -10 10 0 6 5 10 10 10 6 0 10 -4 10 -10z m240 0 c0 -5 -2 -10 -4 -10 -3 0
-8 5 -11 10 -3 6 -1 10 4 10 6 0 11 -4 11 -10z m-352 -82 c-3 -15 -1 -28 4
-28 5 0 6 -5 3 -11 -9 -14 -34 21 -28 38 4 9 0 11 -13 6 -17 -6 -18 -5 -4 12
11 14 12 19 3 22 -7 3 -13 9 -13 14 0 5 12 2 26 -7 20 -14 25 -24 22 -46z
m102 43 c0 -5 -7 -12 -16 -15 -14 -5 -15 -4 -4 9 14 17 20 19 20 6z m58 -27
c1 -28 -2 -35 -13 -30 -8 3 -15 0 -15 -7 0 -15 42 -18 51 -4 4 5 12 0 18 -12
7 -11 18 -21 26 -21 8 0 15 -4 15 -10 0 -14 -23 -12 -39 3 -10 10 -12 9 -9 -2
2 -9 -6 -15 -24 -16 -21 -1 -30 5 -44 30 -16 30 -16 32 7 68 13 20 24 37 25
37 0 0 1 -16 2 -36z m228 21 c9 -8 11 -15 6 -15 -5 0 -15 7 -22 15 -7 8 -9 15
-6 15 4 0 14 -7 22 -15z m-56 -11 c14 -8 17 -13 7 -10 -10 3 -28 6 -38 6 -11
0 -17 5 -14 10 8 13 15 12 45 -6z m130 -60 c7 -18 7 -30 0 -39 -5 -6 -7 -15
-3 -18 7 -8 -15 -37 -28 -37 -5 0 -9 5 -9 10 0 6 7 10 15 10 8 0 15 3 15 6 0
9 -41 44 -52 44 -14 0 -9 -19 8 -28 15 -8 15 -10 0 -15 -10 -4 -16 -1 -16 8 0
9 -6 12 -15 9 -8 -4 -13 -10 -10 -14 3 -5 1 -11 -5 -15 -6 -4 -10 5 -10 19 0
17 4 24 14 20 15 -6 28 17 18 34 -4 5 -21 12 -37 15 l-30 4 33 2 c18 0 44 -6
58 -16 24 -15 25 -15 31 5 7 28 11 28 23 -4z m-160 2 c0 -2 -7 -7 -16 -10 -8
-3 -12 -2 -9 4 6 10 25 14 25 6z m-448 -24 c4 -12 -1 -18 -13 -18 -22 0 -23 2
-6 21 15 18 14 18 19 -3z m665 -14 c-3 -7 -5 -2 -5 12 0 14 2 19 5 13 2 -7 2
-19 0 -25z m-233 -18 c-10 -4 -21 -6 -24 -3 -8 7 24 22 34 16 5 -4 1 -10 -10
-13z m282 -45 c-3 -23 -11 -25 -23 -7 -9 15 -7 18 7 19 10 1 17 -4 16 -12z
m-101 -5 c-3 -5 -2 -10 4 -10 5 0 11 4 13 9 2 5 20 -11 41 -35 21 -24 34 -44
28 -44 -6 0 -11 5 -11 10 0 6 -11 10 -25 10 -15 0 -25 6 -25 14 0 8 -4 17 -9
20 -4 3 -7 -5 -6 -19 4 -36 -22 -39 -40 -5 -13 24 -13 29 -1 24 8 -3 17 -1 21
5 3 6 1 11 -5 11 -6 0 -8 5 -5 10 3 6 11 10 16 10 6 0 7 -4 4 -10z m-41 -55
c3 -8 1 -15 -4 -15 -6 0 -10 7 -10 15 0 8 2 15 4 15 2 0 6 -7 10 -15z m-54
-36 c0 -5 4 -8 9 -5 14 9 36 -23 24 -35 -7 -7 -14 -5 -23 6 -7 8 -23 15 -36
15 -28 0 -32 16 -6 23 29 8 32 7 32 -4z m508 -23 c-7 -8 -15 -12 -17 -11 -5 6
10 25 20 25 5 0 4 -6 -3 -14z m-421 -52 c-4 -4 5 -20 18 -36 30 -35 23 -55
-10 -31 -13 10 -19 20 -14 22 6 1 2 9 -8 17 -16 12 -16 15 -3 24 17 11 27 13
17 4z m54 -11 c13 -16 12 -17 -3 -4 -10 7 -18 15 -18 17 0 8 8 3 21 -13z m455
-15 c17 -19 17 -21 2 -15 -10 4 -18 5 -18 3 0 -3 -3 -11 -6 -19 -4 -11 1 -13
18 -10 13 2 34 0 48 -6 21 -9 15 -10 -33 -7 -33 2 -60 0 -64 -7 -3 -6 -1 -7 5
-3 7 4 12 3 12 -1 0 -5 -9 -14 -20 -21 -18 -11 -20 -10 -20 9 0 11 9 32 20 46
11 14 20 32 20 39 0 20 14 17 36 -8z m-431 -28 c3 -5 -1 -10 -9 -10 -9 0 -16
5 -16 10 0 6 4 10 9 10 6 0 13 -4 16 -10z m30 -30 c3 -5 3 -21 -1 -35 l-6 -25
-25 26 c-13 14 -21 29 -18 33 4 3 11 -2 16 -12 6 -9 15 -17 21 -17 9 0 9 3 0
12 -7 7 -12 16 -12 20 0 11 18 10 25 -2z m-695 -21 c0 -6 -4 -7 -10 -4 -5 3
-10 11 -10 16 0 6 5 7 10 4 6 -3 10 -11 10 -16z m430 7 c0 -11 -19 -15 -25 -6
-3 5 1 10 9 10 9 0 16 -2 16 -4z m-385 -22 c14 -9 22 -21 18 -27 -3 -5 -1 -7
5 -3 6 3 21 2 34 -3 20 -8 148 -130 242 -230 17 -18 37 -31 45 -30 28 2 42 -1
38 -8 -3 -5 6 -9 19 -9 13 -1 24 2 24 8 0 5 4 6 10 3 5 -3 7 0 4 8 -3 8 3 22
12 32 17 17 18 17 25 -1 7 -17 8 -17 8 -1 1 19 16 23 26 7 3 -5 25 -9 48 -7
36 2 42 -1 42 -18 0 -41 13 -47 84 -41 71 6 57 -7 -17 -17 -36 -4 -47 -2 -60
15 -22 26 -105 63 -110 49 -12 -35 -40 -52 -96 -58 -49 -5 -58 -4 -51 8 5 8 5
11 1 7 -5 -4 -23 2 -42 13 -42 23 -48 24 -40 3 3 -8 2 -13 -3 -10 -4 3 -8 19
-9 36 -1 34 -20 54 -92 97 -44 26 -185 149 -185 162 0 3 -4 12 -8 19 -11 16
-1 15 28 -4z m530 -14 c3 -5 2 -10 -4 -10 -5 0 -13 5 -16 10 -3 6 -2 10 4 10
5 0 13 -4 16 -10z m-114 -19 c-8 -5 -10 -14 -5 -22 6 -11 4 -11 -10 0 -13 11
-14 16 -4 22 7 5 18 9 23 9 6 0 4 -4 -4 -9z m250 -24 c-1 -4 -4 -7 -7 -6 -4 0
-11 -5 -15 -13 -7 -10 -9 -10 -9 3 0 9 3 19 7 23 8 8 25 3 24 -7z m200 -27 c9
0 19 -69 12 -86 -9 -23 -23 -16 -23 12 0 20 -4 25 -16 20 -8 -3 -13 -2 -10 3
3 5 -6 17 -19 27 -38 29 -32 44 13 33 20 -5 40 -9 43 -9z m-235 -95 c-14 -26
-16 -27 -16 -8 0 12 5 25 10 28 6 3 11 18 11 33 l2 27 4 -25 c2 -14 -3 -39
-11 -55z m-305 -8 c-8 -8 -11 -7 -11 4 0 20 13 34 18 19 3 -7 -1 -17 -7 -23z
m149 -35 c-13 -5 -90 18 -90 27 0 4 22 0 49 -8 27 -9 46 -17 41 -19z m349 29
c7 -1 11 -7 8 -15 -3 -8 -1 -17 6 -20 7 -3 3 -5 -8 -3 -11 1 -25 -1 -30 -5 -6
-3 -21 2 -34 13 -13 10 -19 19 -14 19 5 0 14 -5 21 -12 16 -16 28 -2 13 16
-10 12 -9 14 6 11 10 -2 24 -4 32 -4z m72 -18 c13 -16 12 -17 -3 -4 -10 7 -18
15 -18 17 0 8 8 3 21 -13z m-544 -23 c8 0 10 7 6 17 -6 14 -2 13 21 -5 16 -12
35 -22 44 -22 11 0 12 -3 2 -15 -6 -8 -9 -19 -5 -25 10 -15 -11 -12 -25 4 -6
8 -27 20 -46 26 -19 7 -39 21 -45 32 -11 20 -10 20 12 4 13 -9 29 -16 36 -16z
m298 20 c3 -5 1 -10 -4 -10 -6 0 -11 5 -11 10 0 6 2 10 4 10 3 0 8 -4 11 -10z
m-108 -26 c-3 -3 -12 -4 -19 -1 -8 3 -5 6 6 6 11 1 17 -2 13 -5z m99 -51 c-7
-7 -26 7 -26 19 0 6 6 6 15 -2 9 -7 13 -15 11 -17z m-116 -13 c0 -5 -5 -10
-11 -10 -5 0 -7 5 -4 10 3 6 8 10 11 10 2 0 4 -4 4 -10z m145 0 c3 -5 1 -10
-4 -10 -6 0 -11 5 -11 10 0 6 2 10 4 10 3 0 8 -4 11 -10z m-139 -25 c-11 -8
-29 -15 -40 -14 -15 0 -11 4 14 14 45 17 49 17 26 0z m-194 -13 c11 -13 9 -14
-12 -7 -44 13 -55 23 -27 23 15 0 32 -7 39 -16z"/>
<path d="M1050 1250 c0 -5 5 -10 11 -10 5 0 7 5 4 10 -3 6 -8 10 -11 10 -2 0
-4 -4 -4 -10z"/>
<path d="M300 1060 c-8 -5 -12 -12 -9 -15 4 -3 12 1 19 10 14 17 11 19 -10 5z"/>
<path d="M310 206 c0 -2 8 -10 18 -17 15 -13 16 -12 3 4 -13 16 -21 21 -21 13z"/>
<path d="M608 63 c7 -3 16 -2 19 1 4 3 -2 6 -13 5 -11 0 -14 -3 -6 -6z"/>
<path d="M663 53 c9 -2 23 -2 30 0 6 3 -1 5 -18 5 -16 0 -22 -2 -12 -5z"/>
</g>
</svg>
