<svg xmlns="http://www.w3.org/2000/svg" viewBox="0 0 353.1 408.4"><path d="M204.3 194.8c1.3 10.5-2.9 18.9-12.6 25.3s-19 6.8-27.9 1.5c-6.5-2.8-11-7.7-13.4-14.5s-2.5-13.7-.1-20.5 6.7-11.7 13-14.5c6-3 12-4 18.1-3s11.4 4 16 8.9 6.9 10.4 6.9 16.8zm27.7-5.3c-2.3-17.8-11.8-31.5-28.3-41s-32.9-10.6-49.3-3.3c-10.5 4.7-18.9 12-25.1 22.1-6.2 10.1-9.1 20.9-8.6 32.4.7 15.2 7.1 28.1 19.4 38.8 12.3 10.7 26 15.3 41.4 14 15.2-1.3 27.8-8.3 38-21s14.3-26.7 12.5-42zM291.8 54c-3.3-4.5-8-8.2-14-11.1-6-2.9-10.8-4.8-14.5-5.5s-9.6-1.8-17.8-3.1c-48.5-7.8-95.7-7.7-141.5.5-7.2 1.2-12.7 2.2-16.5 3s-8.4 2.7-13.8 5.5c-5.3 2.8-9.5 6.4-12.5 10.8 5 4.7 11.3 8.5 19 11.4 7.7 2.9 13.8 4.8 18.4 5.5s11.9 1.7 21.9 2.9c38 4.8 75.3 4.9 112 .3 10.5-1.3 18-2.3 22.4-3s10.5-2.5 18.1-5.4c7.7-3.1 13.9-7 18.8-11.8zM306 312.8c-1.3 4.3-2.6 10.7-3.9 19.1s-2.4 15.4-3.5 21-3.5 11.4-7.1 17.5-8.5 10.8-14.5 14.1c-14.3 8-30.1 14-47.4 17.9s-34.1 5.8-50.5 5.5-33.2-1.8-50.4-4.6c-7.7-1.3-14.5-2.8-20.4-4.5S96 394.9 89.2 392s-12.9-6.5-18.3-10.9-9.7-9.5-13-15.4c-4.2-16-8.9-40.3-14.3-73l1.5-4 4.5-2.3c37.2 24.7 79.4 37 126.6 37s89.5-12.3 126.9-37c3.5 1 5.5 2.9 6 5.8s.1 6.6-1.3 11.3-1.8 7.8-1.8 9.3zm45.3-240.3c-4.3 27.8-13.6 82.4-27.8 163.8-.8 5-3.1 9.7-6.8 14s-7.3 7.7-10.9 10-8.1 4.9-13.6 7.8c-42 21-92.8 28.3-152.5 22-41.3-4.5-74.2-16.1-98.5-34.7-2.5-2-4.6-4.2-6.4-6.6s-3.2-5.3-4.3-8.8-1.8-6.3-2.3-8.5-.9-5.5-1.5-9.9-1-7.3-1.4-8.8c-1.5-8.3-3.7-20.8-6.6-37.5s-5.3-30.1-7-40.4S8.2 112.3 6 98 2 70.5.5 58.5c.5-4.3 2-8.4 4.4-12.1s5-6.9 7.9-9.4 6.6-5 11.3-7.5 8.5-4.4 11.5-5.6 7-2.8 12-4.6c20.8-7.7 46.9-13 78.3-16 63.2-6.2 119.5-2 169 12.5 25.8 7.7 43.8 17.8 53.8 30.5 2.7 3.3 4 7.6 4.1 12.8s-.5 9.6-1.5 13.4z" fill="#00e2e5" stroke="#00e2e5"/></svg>