<svg xmlns="http://www.w3.org/2000/svg" viewBox="0 0 449 353"><path d="M416.5 312.5v-192c-5.3 6-11.1 11.5-17.3 16.5-44.7 34.3-80.2 62.5-106.5 84.5-8.5 7.2-15.4 12.8-20.8 16.8s-12.5 8-21.6 12.1c-9.1 4.1-17.6 6.1-25.6 6.1h-.5c-8 0-16.5-2-25.6-6.1s-16.3-8.1-21.6-12.1-12.3-9.6-20.8-16.8c-26.3-22-61.8-50.2-106.5-84.5-6.2-5-11.9-10.5-17.3-16.5v192c0 2.2.8 4 2.4 5.6s3.5 2.4 5.6 2.4h368c2.2 0 4-.8 5.6-2.4s2.5-3.4 2.5-5.6zm0-262.7v-6.1s0-1.1-.1-3.3-.3-3.2-.8-3.1-.9-.7-1.4-2.3-1.3-2.2-2.3-1.9-2.2.1-3.5-.6h-368c-2.2 0-4 .8-5.6 2.4s-2.4 3.5-2.4 5.6c0 28 12.3 51.7 36.8 71 32.2 25.3 65.6 51.8 100.3 79.3 1 .8 3.9 3.3 8.8 7.4s8.7 7.2 11.5 9.4 6.5 4.8 11.1 7.9 8.8 5.4 12.6 6.9 7.4 2.3 10.8 2.3h.5c3.3 0 6.9-.8 10.8-2.3s8-3.8 12.6-6.9 8.3-5.7 11.1-7.9c2.8-2.2 6.7-5.3 11.5-9.4s7.8-6.5 8.8-7.4c34.7-27.5 68.1-53.9 100.3-79.3 9-7.2 17.4-16.8 25.1-28.9s11.5-23 11.5-32.8zm32-9.3v272c0 11-3.9 20.4-11.8 28.3s-17.3 11.8-28.3 11.8h-368c-11 0-20.4-3.9-28.3-11.8S.5 323.5.5 312.5v-272c0-11 3.9-20.4 11.8-28.3S29.5.5 40.5.5h368c11 0 20.4 3.9 28.3 11.8s11.7 17.2 11.7 28.2z" fill="#00e2e5" stroke="#00e2e5"/></svg>