<svg id="Layer_1" xmlns="http://www.w3.org/2000/svg" viewBox="0 0 385 375.6"><style>.st0{fill:#00e2e5;stroke:#00e2e5}</style><path class="st0" d="M192.5.5c34.8 0 67 8.6 96.4 25.8s52.7 40.5 69.9 69.9 25.8 61.5 25.8 96.4c0 41.8-12.2 79.5-36.6 112.9s-56 56.5-94.6 69.4c-4.5.8-7.8.3-10-1.8s-3.3-4.5-3.3-7.5c0-.5 0-6.9.1-19.1s.1-23.5.1-33.6c0-16.2-4.3-28-13-35.5 9.5-1 18-2.5 25.6-4.5 7.6-2 15.4-5.3 23.5-9.8s14.8-10 20.3-16.6 9.8-15.3 13.3-26.3c3.4-10.9 5.1-23.5 5.1-37.6 0-19.8-6.6-37-19.8-51.5 6.2-15.2 5.5-32.2-2-51-4.7-1.5-11.4-.6-20.3 2.8s-16.5 7-23 11l-9.5 6c-15.5-4.3-31.5-6.5-48-6.5s-32.5 2.2-48 6.5c-2.7-1.8-6.2-4.1-10.6-6.8s-11.4-5.9-20.9-9.6-16.6-5-21.2-3.5c-7.5 18.8-8.2 35.8-2 51C76.6 145.5 70 162.7 70 182.5c0 14.2 1.7 26.7 5.1 37.5 3.4 10.8 7.8 19.6 13.1 26.3s12 12.3 20.1 16.8 15.9 7.8 23.5 9.8c7.6 2 16.1 3.5 25.6 4.5-6.5 6-10.6 14.6-12.3 25.8-3.5 1.7-7.3 2.9-11.3 3.8s-8.8 1.3-14.3 1.3-11-1.8-16.4-5.4-10-8.8-13.9-15.6c-3.2-5.3-7.2-9.7-12.1-13s-9-5.3-12.4-6l-5-.8c-3.5 0-5.9.4-7.3 1.1s-1.8 1.7-1.3 2.9 1.3 2.3 2.3 3.5 2.1 2.2 3.3 3l1.8 1.3c3.7 1.7 7.3 4.8 10.9 9.5s6.2 8.9 7.9 12.8L80 307c2.2 6.3 5.8 11.5 11 15.4s10.8 6.4 16.8 7.5 11.8 1.7 17.4 1.8c5.6.1 10.2-.2 13.9-.9l5.8-1c0 6.3 0 13.7.1 22.1s.1 13 .1 13.6c0 3-1.1 5.5-3.3 7.5s-5.5 2.6-10 1.8c-38.7-12.8-70.2-36-94.6-69.4S.6 234.4.6 192.5c0-34.8 8.6-67 25.8-96.4s40.5-52.7 69.9-69.9S157.7.5 192.5.5zM73.3 276.3c.5-1.2-.1-2.2-1.8-3-1.7-.5-2.8-.3-3.3.5-.5 1.2.1 2.2 1.8 3 1.5 1 2.6.8 3.3-.5zm7.7 8.5c1.2-.8 1-2.2-.5-4-1.7-1.5-3-1.8-4-.8-1.2.8-1 2.2.5 4 1.7 1.7 3 1.9 4 .8zm7.5 11.2c1.5-1.2 1.5-2.8 0-4.8-1.3-2.2-2.8-2.7-4.3-1.5-1.5.8-1.5 2.3 0 4.5s3 2.8 4.3 1.8zM99 306.5c1.3-1.3 1-2.9-1-4.8-2-2-3.7-2.3-5-.8-1.5 1.3-1.2 2.9 1 4.8 2 2.1 3.7 2.3 5 .8zm14.3 6.3c.5-1.8-.6-3.2-3.3-4-2.5-.7-4.1-.1-4.8 1.8s.4 3.1 3.3 3.8c2.5.9 4.1.4 4.8-1.6zM129 314c0-2.2-1.4-3.1-4.3-2.8-2.7 0-4 .9-4 2.8 0 2.2 1.4 3.1 4.3 2.8 2.7 0 4-1 4-2.8zm14.5-2.5c-.3-1.8-1.8-2.6-4.5-2.3-2.7.5-3.8 1.8-3.5 3.8s1.8 2.7 4.5 2 3.8-1.8 3.5-3.5z"/></svg>