<svg id="Layer_1" xmlns="http://www.w3.org/2000/svg" viewBox="0 0 385 368"><style>.st0{fill:#00e2e5;stroke:#00e2e5}</style><path class="st0" d="M87.8 119.8v247.8H5.3V119.8h82.5zM93 43.3c.2 12.2-4 22.3-12.6 30.5S60.5 86 46.5 86H46c-13.7 0-24.7-4.1-33-12.3S.5 55.4.5 43.3C.5 31 4.8 20.8 13.4 12.7S33.2.5 47 .5s24.9 4 33.3 12.1S92.8 30.9 93 43.3zm291.5 182.2v142h-82.3V235c0-17.5-3.4-31.2-10.1-41.1S274.8 179 260.5 179c-10.5 0-19.3 2.9-26.4 8.6s-12.4 12.9-15.9 21.4c-1.8 5-2.8 11.8-2.8 20.3v138.3h-82.3c.3-66.5.5-120.4.5-161.8s-.1-66-.3-74l-.3-12h82.3v36h-.3c3.3-5.3 6.8-10 10.3-14s8.2-8.3 14.1-13 13.2-8.3 21.8-10.9c8.6-2.6 18.1-3.9 28.6-3.9 28.5 0 51.4 9.5 68.8 28.4s25.9 46.6 25.9 83.1z"/></svg>