<?xml version="1.0" encoding="utf-8"?>
<!-- Generator: Adobe Illustrator 19.2.1, SVG Export Plug-In . SVG Version: 6.00 Build 0)  -->
<svg version="1.1" id="Layer_1" xmlns="http://www.w3.org/2000/svg" xmlns:xlink="http://www.w3.org/1999/xlink" x="0px" y="0px"
	 viewBox="0 0 353.1 408.4" style="enable-background:new 0 0 353.1 408.4;" xml:space="preserve">
<style type="text/css">
	.st0{fill:#00E2E5;stroke:#00E2E5;}
</style>
<g id="icomoon-ignore">
</g>
<path class="st0" d="M204.3,194.8c1.3,10.5-2.9,18.9-12.6,25.3s-19,6.8-27.9,1.5c-6.5-2.8-11-7.7-13.4-14.5s-2.5-13.7-0.1-20.5
	s6.7-11.7,13-14.5c6-3,12-4,18.1-3s11.4,4,16,8.9S204.3,188.4,204.3,194.8z M232,189.5c-2.3-17.8-11.8-31.5-28.3-41
	s-32.9-10.6-49.3-3.3c-10.5,4.7-18.9,12-25.1,22.1c-6.2,10.1-9.1,20.9-8.6,32.4c0.7,15.2,7.1,28.1,19.4,38.8
	c12.3,10.7,26,15.3,41.4,14c15.2-1.3,27.8-8.3,38-21C229.7,218.8,233.8,204.8,232,189.5z M291.8,54c-3.3-4.5-8-8.2-14-11.1
	c-6-2.9-10.8-4.8-14.5-5.5s-9.6-1.8-17.8-3.1c-48.5-7.8-95.7-7.7-141.5,0.5c-7.2,1.2-12.7,2.2-16.5,3s-8.4,2.7-13.8,5.5
	c-5.3,2.8-9.5,6.4-12.5,10.8c5,4.7,11.3,8.5,19,11.4c7.7,2.9,13.8,4.8,18.4,5.5s11.9,1.7,21.9,2.9c38,4.8,75.3,4.9,112,0.3
	c10.5-1.3,18-2.3,22.4-3s10.5-2.5,18.1-5.4C280.7,62.7,286.9,58.8,291.8,54z M306,312.8c-1.3,4.3-2.6,10.7-3.9,19.1
	s-2.4,15.4-3.5,21s-3.5,11.4-7.1,17.5s-8.5,10.8-14.5,14.1c-14.3,8-30.1,14-47.4,17.9s-34.1,5.8-50.5,5.5s-33.2-1.8-50.4-4.6
	c-7.7-1.3-14.5-2.8-20.4-4.5s-12.3-3.9-19.1-6.8s-12.9-6.5-18.3-10.9s-9.7-9.5-13-15.4c-4.2-16-8.9-40.3-14.3-73l1.5-4l4.5-2.3
	c37.2,24.7,79.4,37,126.6,37s89.5-12.3,126.9-37c3.5,1,5.5,2.9,6,5.8s0.1,6.6-1.3,11.3S306,311.3,306,312.8z M351.3,72.5
	c-4.3,27.8-13.6,82.4-27.8,163.8c-0.8,5-3.1,9.7-6.8,14s-7.3,7.7-10.9,10s-8.1,4.9-13.6,7.8c-42,21-92.8,28.3-152.5,22
	c-41.3-4.5-74.2-16.1-98.5-34.7c-2.5-2-4.6-4.2-6.4-6.6s-3.2-5.3-4.3-8.8s-1.8-6.3-2.3-8.5s-0.9-5.5-1.5-9.9s-1-7.3-1.4-8.8
	c-1.5-8.3-3.7-20.8-6.6-37.5s-5.3-30.1-7-40.4S8.2,112.3,6,98S2,70.5,0.5,58.5c0.5-4.3,2-8.4,4.4-12.1s5-6.9,7.9-9.4s6.6-5,11.3-7.5
	s8.5-4.4,11.5-5.6s7-2.8,12-4.6c20.8-7.7,46.9-13,78.3-16c63.2-6.2,119.5-2,169,12.5c25.8,7.7,43.8,17.8,53.8,30.5
	c2.7,3.3,4,7.6,4.1,12.8S352.3,68.7,351.3,72.5z"/>
</svg>
