<?xml version="1.0" encoding="utf-8"?>
<!-- Generated by IcoMoon.io -->
<!DOCTYPE svg PUBLIC "-//W3C//DTD SVG 1.1//EN" "http://www.w3.org/Graphics/SVG/1.1/DTD/svg11.dtd">
<svg version="1.1" xmlns="http://www.w3.org/2000/svg" xmlns:xlink="http://www.w3.org/1999/xlink" width="448" height="448" viewBox="0 0 448 448">
<g id="icomoon-ignore">
</g>
<style>
path {
stroke: rgb(0, 226, 229);
fill: rgb(0, 226, 229);
}
</style>
<path d="M416 376v-192q-8 9-17.25 16.5-67 51.5-106.5 84.5-12.75 10.75-20.75 16.75t-21.625 12.125-25.625 6.125h-0.5q-12 0-25.625-6.125t-21.625-12.125-20.75-16.75q-39.5-33-106.5-84.5-9.25-7.5-17.25-16.5v192q0 3.25 2.375 5.625t5.625 2.375h368q3.25 0 5.625-2.375t2.375-5.625zM416 113.25v-6.125t-0.125-3.25-0.75-3.125-1.375-2.25-2.25-1.875-3.5-0.625h-368q-3.25 0-5.625 2.375t-2.375 5.625q0 42 36.75 71 48.25 38 100.25 79.25 1.5 1.25 8.75 7.375t11.5 9.375 11.125 7.875 12.625 6.875 10.75 2.25h0.5q5 0 10.75-2.25t12.625-6.875 11.125-7.875 11.5-9.375 8.75-7.375q52-41.25 100.25-79.25 13.5-10.75 25.125-28.875t11.625-32.875zM448 104v272q0 16.5-11.75 28.25t-28.25 11.75h-368q-16.5 0-28.25-11.75t-11.75-28.25v-272q0-16.5 11.75-28.25t28.25-11.75h368q16.5 0 28.25 11.75t11.75 28.25z"></path>
</svg>
