<?xml version="1.0" encoding="utf-8"?>
<!-- Generator: Adobe Illustrator 19.2.1, SVG Export Plug-In . SVG Version: 6.00 Build 0)  -->
<svg version="1.1" id="Layer_1" xmlns="http://www.w3.org/2000/svg" xmlns:xlink="http://www.w3.org/1999/xlink" x="0px" y="0px"
	 viewBox="0 0 449 353" style="enable-background:new 0 0 449 353;" xml:space="preserve">
<style type="text/css">
	.st0{fill:#00E2E5;stroke:#00E2E5;}
</style>
<g id="icomoon-ignore">
</g>
<path class="st0" d="M416.5,312.5v-192c-5.3,6-11.1,11.5-17.3,16.5c-44.7,34.3-80.2,62.5-106.5,84.5c-8.5,7.2-15.4,12.8-20.8,16.8
	s-12.5,8-21.6,12.1c-9.1,4.1-17.6,6.1-25.6,6.1h-0.5c-8,0-16.5-2-25.6-6.1s-16.3-8.1-21.6-12.1s-12.3-9.6-20.8-16.8
	c-26.3-22-61.8-50.2-106.5-84.5c-6.2-5-11.9-10.5-17.3-16.5v192c0,2.2,0.8,4,2.4,5.6s3.5,2.4,5.6,2.4h368c2.2,0,4-0.8,5.6-2.4
	S416.5,314.7,416.5,312.5z M416.5,49.8v-6.1c0,0,0-1.1-0.1-3.3s-0.3-3.2-0.8-3.1s-0.9-0.7-1.4-2.3s-1.3-2.2-2.3-1.9
	s-2.2,0.1-3.5-0.6h-368c-2.2,0-4,0.8-5.6,2.4s-2.4,3.5-2.4,5.6c0,28,12.3,51.7,36.8,71c32.2,25.3,65.6,51.8,100.3,79.3
	c1,0.8,3.9,3.3,8.8,7.4s8.7,7.2,11.5,9.4s6.5,4.8,11.1,7.9s8.8,5.4,12.6,6.9s7.4,2.3,10.8,2.3h0.5c3.3,0,6.9-0.8,10.8-2.3
	s8-3.8,12.6-6.9s8.3-5.7,11.1-7.9c2.8-2.2,6.7-5.3,11.5-9.4s7.8-6.5,8.8-7.4c34.7-27.5,68.1-53.9,100.3-79.3
	c9-7.2,17.4-16.8,25.1-28.9S416.5,59.6,416.5,49.8z M448.5,40.5v272c0,11-3.9,20.4-11.8,28.3s-17.3,11.8-28.3,11.8h-368
	c-11,0-20.4-3.9-28.3-11.8S0.5,323.5,0.5,312.5v-272c0-11,3.9-20.4,11.8-28.3S29.5,0.5,40.5,0.5h368c11,0,20.4,3.9,28.3,11.8
	S448.5,29.5,448.5,40.5z"/>
</svg>
