<?xml version="1.0" encoding="utf-8"?>
<!-- Generator: Adobe Illustrator 19.2.1, SVG Export Plug-In . SVG Version: 6.00 Build 0)  -->
<svg version="1.1" id="Layer_1" xmlns="http://www.w3.org/2000/svg" xmlns:xlink="http://www.w3.org/1999/xlink" x="0px" y="0px"
	 viewBox="0 0 385 375.6" style="enable-background:new 0 0 385 375.6;" xml:space="preserve">
<style type="text/css">
	.st0{fill:#00E2E5;stroke:#00E2E5;}
</style>
<g id="icomoon-ignore">
</g>
<path class="st0" d="M192.5,0.5c34.8,0,67,8.6,96.4,25.8s52.7,40.5,69.9,69.9s25.8,61.5,25.8,96.4c0,41.8-12.2,79.5-36.6,112.9
	s-56,56.5-94.6,69.4c-4.5,0.8-7.8,0.3-10-1.8s-3.3-4.5-3.3-7.5c0-0.5,0-6.9,0.1-19.1s0.1-23.5,0.1-33.6c0-16.2-4.3-28-13-35.5
	c9.5-1,18-2.5,25.6-4.5c7.6-2,15.4-5.3,23.5-9.8s14.8-10,20.3-16.6s9.8-15.3,13.3-26.3c3.4-10.9,5.1-23.5,5.1-37.6
	c0-19.8-6.6-37-19.8-51.5c6.2-15.2,5.5-32.2-2-51c-4.7-1.5-11.4-0.6-20.3,2.8s-16.5,7-23,11l-9.5,6c-15.5-4.3-31.5-6.5-48-6.5
	s-32.5,2.2-48,6.5c-2.7-1.8-6.2-4.1-10.6-6.8s-11.4-5.9-20.9-9.6S96.4,78.5,91.8,80c-7.5,18.8-8.2,35.8-2,51
	C76.6,145.5,70,162.7,70,182.5c0,14.2,1.7,26.7,5.1,37.5c3.4,10.8,7.8,19.6,13.1,26.3s12,12.3,20.1,16.8s15.9,7.8,23.5,9.8
	c7.6,2,16.1,3.5,25.6,4.5c-6.5,6-10.6,14.6-12.3,25.8c-3.5,1.7-7.3,2.9-11.3,3.8s-8.8,1.3-14.3,1.3s-11-1.8-16.4-5.4
	s-10-8.8-13.9-15.6c-3.2-5.3-7.2-9.7-12.1-13s-9-5.3-12.4-6l-5-0.8c-3.5,0-5.9,0.4-7.3,1.1s-1.8,1.7-1.3,2.9s1.3,2.3,2.3,3.5
	s2.1,2.2,3.3,3l1.8,1.3c3.7,1.7,7.3,4.8,10.9,9.5s6.2,8.9,7.9,12.8L80,307c2.2,6.3,5.8,11.5,11,15.4s10.8,6.4,16.8,7.5
	s11.8,1.7,17.4,1.8c5.6,0.1,10.2-0.2,13.9-0.9l5.8-1c0,6.3,0,13.7,0.1,22.1s0.1,13,0.1,13.6c0,3-1.1,5.5-3.3,7.5s-5.5,2.6-10,1.8
	c-38.7-12.8-70.2-36-94.6-69.4s-36.6-71-36.6-112.9c0-34.8,8.6-67,25.8-96.4s40.5-52.7,69.9-69.9S157.7,0.5,192.5,0.5z M73.3,276.3
	c0.5-1.2-0.1-2.2-1.8-3c-1.7-0.5-2.8-0.3-3.3,0.5c-0.5,1.2,0.1,2.2,1.8,3C71.5,277.8,72.6,277.6,73.3,276.3z M81,284.8
	c1.2-0.8,1-2.2-0.5-4c-1.7-1.5-3-1.8-4-0.8c-1.2,0.8-1,2.2,0.5,4C78.7,285.7,80,285.9,81,284.8z M88.5,296c1.5-1.2,1.5-2.8,0-4.8
	c-1.3-2.2-2.8-2.7-4.3-1.5c-1.5,0.8-1.5,2.3,0,4.5S87.2,297,88.5,296z M99,306.5c1.3-1.3,1-2.9-1-4.8c-2-2-3.7-2.3-5-0.8
	c-1.5,1.3-1.2,2.9,1,4.8C96,307.8,97.7,308,99,306.5z M113.3,312.8c0.5-1.8-0.6-3.2-3.3-4c-2.5-0.7-4.1-0.1-4.8,1.8s0.4,3.1,3.3,3.8
	C111,315.3,112.6,314.8,113.3,312.8z M129,314c0-2.2-1.4-3.1-4.3-2.8c-2.7,0-4,0.9-4,2.8c0,2.2,1.4,3.1,4.3,2.8
	C127.7,316.8,129,315.8,129,314z M143.5,311.5c-0.3-1.8-1.8-2.6-4.5-2.3c-2.7,0.5-3.8,1.8-3.5,3.8s1.8,2.7,4.5,2
	S143.8,313.2,143.5,311.5z"/>
</svg>
