<?xml version="1.0" encoding="utf-8"?>
<!-- Generator: Adobe Illustrator 19.2.1, SVG Export Plug-In . SVG Version: 6.00 Build 0)  -->
<svg version="1.1" id="Layer_1" xmlns="http://www.w3.org/2000/svg" xmlns:xlink="http://www.w3.org/1999/xlink" x="0px" y="0px"
	 viewBox="0 0 385 368" style="enable-background:new 0 0 385 368;" xml:space="preserve">
<style type="text/css">
	.st0{fill:#00E2E5;stroke:#00E2E5;}
</style>
<g id="icomoon-ignore">
</g>
<path class="st0" d="M87.8,119.8v247.8H5.3V119.8H87.8z M93,43.3c0.2,12.2-4,22.3-12.6,30.5S60.5,86,46.5,86H46
	c-13.7,0-24.7-4.1-33-12.3S0.5,55.4,0.5,43.3c0-12.3,4.3-22.5,12.9-30.6S33.2,0.5,47,0.5s24.9,4,33.3,12.1S92.8,30.9,93,43.3z
	 M384.5,225.5v142h-82.3V235c0-17.5-3.4-31.2-10.1-41.1S274.8,179,260.5,179c-10.5,0-19.3,2.9-26.4,8.6s-12.4,12.9-15.9,21.4
	c-1.8,5-2.8,11.8-2.8,20.3v138.3h-82.3c0.3-66.5,0.5-120.4,0.5-161.8s-0.1-66-0.3-74l-0.3-12h82.3v36H215c3.3-5.3,6.8-10,10.3-14
	s8.2-8.3,14.1-13s13.2-8.3,21.8-10.9c8.6-2.6,18.1-3.9,28.6-3.9c28.5,0,51.4,9.5,68.8,28.4S384.5,189,384.5,225.5z"/>
</svg>
